Coordinates
version=1
nRows=8
nColumns=36
inDegrees=yes

Units are S.I. units (second, meters, Newtons, ...)
If the header above contains a line with 'inDegrees', this indicates whether rotational values are in degrees (yes) or radians (no).

endheader
time	pelvis_tilt	pelvis_list	pelvis_rotation	pelvis_tx	pelvis_ty	pelvis_tz	hip_flexion_r	hip_adduction_r	hip_rotation_r	knee_angle_r	knee_angle_r_beta	ankle_angle_r	subtalar_angle_r	mtp_angle_r	hip_flexion_l	hip_adduction_l	hip_rotation_l	knee_angle_l	knee_angle_l_beta	ankle_angle_l	subtalar_angle_l	mtp_angle_l	lumbar_extension	lumbar_bending	lumbar_rotation	arm_flex_r	arm_add_r	arm_rot_r	elbow_flex_r	pro_sup_r	arm_flex_l	arm_add_l	arm_rot_l	elbow_flex_l	pro_sup_l
     14.81666670	      5.87313992	      2.40612956	    180.59884802	      0.46886440	      0.83555382	      0.73224041	     27.84442010	      4.53431645	    -16.58368265	     58.64874710	      1.02361374	     -7.57660883	    -11.30143756	     -7.49999987	     28.58424322	      5.08709280	     -8.65183388	     44.47845693	      0.77629552	    -15.64946563	    -21.05281563	     -7.49999987	     -9.74000728	      0.89571446	     -1.67662915	     12.07076501	    -18.64457197	    -11.00557874	     18.28086616	     79.69830502	     13.34724426	    -16.29521400	    -13.03229669	     13.31174082	     95.82003495
     14.83333330	      5.94984261	      1.58434497	    181.15059191	      0.47406761	      0.83472773	      0.73173433	     30.65916534	      2.38339754	    -16.10451002	     62.67104650	      1.09381611	    -12.19667659	    -13.62344106	     -7.49999987	     30.63309262	      5.40344927	     -9.38805967	     47.87341444	      0.83554871	    -15.58667941	    -19.79989914	     -7.49999987	    -10.37901706	      0.08213544	     -2.33733160	     11.98138174	    -18.29051337	    -10.72467416	     18.80392780	     79.84920508	     14.53888442	    -16.28475664	    -11.84284558	     14.51380156	     96.05875150
     14.85000000	      6.23390768	      1.19201706	    181.59769052	      0.47761257	      0.83549857	      0.73064700	     33.50171849	      0.76413601	    -15.54456733	     66.05686362	      1.15290976	    -15.42386688	    -15.22326577	     -7.49999987	     32.82062659	      5.07132542	     -9.95983126	     50.21965388	      0.87649831	    -15.67706808	    -18.54475841	     -7.49999987	    -10.56871686	     -0.23020054	     -2.24506703	     11.39356201	    -18.18971288	    -10.18466671	     19.53308487	     80.56817574	     15.90156041	    -16.23233374	     -7.07821140	     15.43719496	     96.65071249
     14.86666670	      5.85079181	      0.78960134	    182.11149363	      0.47911925	      0.83961969	      0.73013939	     35.25654467	     -0.95035980	    -14.88984107	     68.80843270	      1.20093370	    -16.46209174	    -16.21432021	     -7.49999987	     33.74095071	      4.79592142	     -9.98553584	     50.62072859	      0.88349838	    -16.17123165	    -17.37753000	     -7.49999987	    -11.49480105	     -0.52256204	     -2.35922419	     11.43898044	    -17.73426006	    -10.02591216	     19.80912105	     80.62880039	     17.02418453	    -15.67856552	     -6.78676933	     16.11869186	     96.43986381
     14.88333330	      5.64928280	      0.83234374	    182.52911289	      0.47922189	      0.84421793	      0.73047553	     36.23665361	     -1.99663866	    -14.05444018	     70.16317481	      1.22457841	    -15.64848012	    -16.71430430	     -7.49999987	     34.17135283	      4.07005065	     -9.34272920	     49.81933577	      0.86951144	    -16.93088078	    -16.07554713	     -7.49999987	    -12.06410094	     -0.14751055	     -2.39836922	     11.64797872	    -17.31265606	     -9.88296035	     20.19675735	     80.58809970	     17.61882528	    -14.86898149	     -6.60098967	     16.74633074	     96.18467970
     14.90000000	      5.83340056	      0.13208221	    182.65529782	      0.47856367	      0.84813937	      0.73056400	     36.92948256	     -3.30919703	    -12.60899239	     70.86889584	      1.23689557	    -12.45037773	    -16.79187798	     -7.49999987	     33.88919786	      4.02557168	     -8.86391066	     47.80317096	      0.83432273	    -17.44192313	    -14.50181128	     -7.49999987	    -11.90069128	     -0.94856073	     -1.82581413	     11.10832058	    -16.69243716	     -9.19898591	     20.13928406	     80.91916591	     18.24563973	    -14.23414184	     -5.92321938	     16.85774805	     95.99934669
     14.91666670	      5.85983293	      0.13041627	    182.72926143	      0.47854489	      0.85146387	      0.73116893	     36.71700643	     -3.70941720	    -11.97907073	     70.12668434	      1.22394154	     -8.85520789	    -16.69679661	     -7.49999987	     32.80517404	      3.47965995	     -7.74439756	     45.32729651	      0.79111057	    -17.43419588	    -13.04553563	     -7.49999987	    -11.81618206	     -0.76007536	     -1.34512652	     10.83848814	    -16.19787366	     -8.17955417	     19.50606583	     81.24467493	     18.59292587	    -13.40981931	     -4.91401909	     16.39335426	     95.14172624
     14.93333330	      6.07050214	      0.51830516	    182.78803159	      0.47966401	      0.85333761	      0.73238104	     36.31827371	     -3.75692465	    -11.94825286	     67.70636439	      1.18169898	     -6.68866602	    -16.12666706	     -7.49999987	     31.66886658	      2.54801833	     -6.67279060	     42.42392032	      0.74043709	    -16.62406150	    -10.99085674	     -7.49999987	    -11.34511988	     -0.14027216	     -0.83007172	     10.22403091	    -15.75102556	     -7.26386920	     18.96090251	     81.71962681	     18.37355271	    -12.41469976	     -4.34367108	     16.17338988	     95.09038226
